<svg xmlns="http://www.w3.org/2000/svg" viewBox="0 0 180 180">
  <defs>
    <linearGradient id="g" x1="0" y1="0" x2="0" y2="1">
      <stop offset="0%" stop-color="#F472B6"/>
      <stop offset="55%" stop-color="#D946EF"/>
      <stop offset="100%" stop-color="#A21CAF"/>
    </linearGradient>
  </defs>
  <rect width="180" height="180" rx="40" fill="#0A0A0A"/>
  <path d="M90 25c6.8 17.4 0 29.8-9 40.5-10 12.4-22.5 22.5-22.5 42.8 0 24.2 18 40.5 37 40.5 20.3 0 38.2-15.8 38.2-40 0-17-10-28.1-18-39.4 5.7 2.8 13.5 9.6 18 17.5-1.1-29.3-25.9-47.8-43.9-61.9Z" fill="url(#g)"/>
  <path d="M90 77.6c2.2 7.9-1.7 13.5-5.6 18.6-4 5-7.3 10.1-7.3 17.4 0 10.1 7.3 16.9 15.2 16.9s15.2-6.8 15.2-16.9c0-7.9-3.9-13-7.3-18-2.2-2.8-3.9-5.6-3.9-8.5 2.8 1.7 5.6 3.4 7.9 6.8 0-13.5-8.5-20.8-14.1-27.6Z" fill="#FFF5FB" opacity=".9"/>
</svg>
