<svg xmlns="http://www.w3.org/2000/svg" viewBox="0 0 32 32">
  <defs>
    <linearGradient id="g" x1="0" y1="0" x2="0" y2="1">
      <stop offset="0%" stop-color="#F472B6"/>
      <stop offset="55%" stop-color="#D946EF"/>
      <stop offset="100%" stop-color="#A21CAF"/>
    </linearGradient>
  </defs>
  <rect width="32" height="32" rx="7" fill="#0A0A0A"/>
  <path d="M16 4.5c1.2 3.1 0 5.3-1.6 7.2-1.8 2.2-4 4-4 7.6 0 4.3 3.2 7.2 6.6 7.2 3.6 0 6.8-2.8 6.8-7.1 0-3-1.8-5-3.2-7 1 .5 2.4 1.7 3.2 3.1-.2-5.2-4.6-8.5-7.8-11Z" fill="url(#g)"/>
  <path d="M16 13.8c.4 1.4-.3 2.4-1 3.3-.7.9-1.3 1.8-1.3 3.1 0 1.8 1.3 3 2.7 3 1.4 0 2.7-1.2 2.7-3 0-1.4-.7-2.3-1.3-3.2-.4-.5-.7-1-.7-1.5.5.3 1 .6 1.4 1.2 0-2.4-1.5-3.7-2.5-4.9Z" fill="#FFF5FB" opacity=".9"/>
</svg>
